<?xml version="1.0" encoding="UTF-8"?>
<svg id="_Слой_1" data-name="Слой 1" xmlns="http://www.w3.org/2000/svg" width="1222.27" height="419.93" viewBox="0 0 1222.27 419.93">
  <defs>
    <style>
      .cls-1 {
        fill: #fff;
      }
    </style>
  </defs>
  <g>
    <g>
      <g>
        <polygon points="147.59 164.2 200.98 164.2 207.58 131.58 154.09 131.58 158.47 109.59 219.49 109.59 226.09 76.97 121.82 76.97 96.16 205.25 139.41 205.25 147.59 164.2"/>
        <path d="m226.09,76.97l-6.6,32.62h-61.02l-4.38,21.99h53.49l-6.6,32.62h-53.4l-8.18,41.05h-43.25l25.66-128.28h104.27m-18.51,54.61h0m18.5-84.61h-104.27c-14.3,0-26.61,10.09-29.42,24.12l-25.66,128.28c-1.76,8.81.52,17.95,6.22,24.9,5.7,6.95,14.21,10.98,23.2,10.98h43.25c14.31,0,26.63-10.11,29.42-24.14l3.37-16.91h28.78c14.28,0,26.57-10.06,29.4-24.05l6.45-31.9c.34-1.52.57-3.08.68-4.67,5.71-4.29,9.88-10.61,11.38-18.03l6.6-32.62c1.78-8.82-.49-17.98-6.18-24.94-5.7-6.97-14.22-11.01-23.22-11.01h0Zm0,60h0,0Z"/>
      </g>
      <g>
        <path d="m315.15,205.25h45.63l12.82-22.36h48.87l4.27,22.36h43.06l-30.42-128.28h-42.52l-81.46,127.85,6.69-33.11h-57.91l18.88-94.74h-43.25l-25.66,128.28h100.97Zm95.11-86.26l6.26,32.75h-25.05l18.78-32.75Z"/>
        <path d="m439.39,76.97l30.42,128.28h-43.06l-4.27-22.36h-48.87l-12.82,22.36h-146.6l25.66-128.28h43.25l-18.88,94.74h57.91l-6.69,33.11,81.46-127.85h42.52m-47.92,74.77h25.05l-6.26-32.75-18.78,32.75m47.92-104.77h-42.52c-10.25,0-19.79,5.23-25.3,13.88l-51.52,80.86h-19.28l11.73-58.88c1.76-8.81-.53-17.94-6.23-24.89s-14.21-10.97-23.19-10.97h-43.25c-14.3,0-26.61,10.09-29.42,24.12l-25.66,128.28c-1.76,8.81.52,17.95,6.22,24.9,5.7,6.95,14.21,10.98,23.2,10.98h146.6c10.75,0,20.68-5.75,26.02-15.07l4.18-7.28h6.76c3.44,13.09,15.31,22.36,29.01,22.36h43.06c9.17,0,17.84-4.2,23.53-11.39,5.69-7.2,7.77-16.6,5.66-25.53l-30.42-128.28c-3.21-13.53-15.29-23.08-29.19-23.08h0Z"/>
      </g>
      <g>
        <path d="m513.24,200.94c9.9,4.83,21.44,7.24,34.64,7.24,10.14,0,19.67-1.31,28.59-3.94,8.92-2.63,16.74-6.38,23.46-11.27l11-55.34h-37.57l-6.71,33.69c-4.24,1.24-8.48,1.86-12.71,1.86-5.86,0-10.9-1.04-15.12-3.12-4.21-2.08-7.45-5.01-9.71-8.8-2.26-3.79-3.39-8.18-3.39-13.19,0-5.74.85-11,2.57-15.76,1.71-4.76,4.18-8.89,7.42-12.37,3.24-3.48,7.12-6.17,11.64-8.06,4.52-1.89,9.59-2.84,15.21-2.84,6.11,0,11.48,1.01,16.13,3.02,4.64,2.02,9.04,5.71,13.19,11.09l30.97-24.01c-5.99-8.31-13.84-14.57-23.55-18.78s-21.29-6.32-34.73-6.32c-12.22,0-23.37,1.86-33.44,5.59-10.08,3.73-18.78,9.01-26.11,15.85-7.33,6.84-12.98,14.97-16.95,24.37-3.97,9.41-5.96,19.73-5.96,30.97s2.72,21.35,8.15,29.96c5.43,8.61,13.1,15.33,23,20.16Z"/>
        <path d="m564.56,74.04c13.44,0,25.01,2.11,34.73,6.32s17.56,10.48,23.55,18.78l-30.97,24.01c-4.15-5.38-8.55-9.07-13.19-11.09-4.64-2.02-10.02-3.02-16.13-3.02-5.62,0-10.69.95-15.21,2.84-4.52,1.9-8.4,4.58-11.64,8.06-3.24,3.48-5.71,7.6-7.42,12.37-1.71,4.76-2.57,10.02-2.57,15.76,0,5.01,1.13,9.41,3.39,13.19,2.26,3.79,5.5,6.72,9.71,8.8,4.21,2.08,9.25,3.12,15.12,3.12,4.24,0,8.47-.62,12.71-1.86l6.71-33.69h37.57l-11,55.34c-6.72,4.89-14.54,8.64-23.46,11.27-8.92,2.63-18.45,3.94-28.59,3.94-13.19,0-24.74-2.41-34.64-7.24-9.9-4.82-17.56-11.54-23-20.16-5.44-8.61-8.15-18.6-8.15-29.96s1.98-21.56,5.96-30.97c3.97-9.41,9.62-17.53,16.95-24.37,7.33-6.84,16.03-12.12,26.11-15.85,10.08-3.72,21.23-5.59,33.44-5.59m0-30c-15.72,0-30.47,2.51-43.84,7.45-13.79,5.1-25.97,12.52-36.18,22.06-10.41,9.72-18.52,21.37-24.12,34.64-5.52,13.07-8.32,27.42-8.32,42.63,0,17.07,4.3,32.54,12.79,45.98,8.43,13.36,20.28,23.82,35.22,31.11,13.98,6.82,30.06,10.27,47.78,10.27,12.96,0,25.43-1.74,37.06-5.16,12.18-3.59,23.16-8.9,32.63-15.79,6.1-4.44,10.31-11.01,11.78-18.42l10.99-55.34c1.24-6.23.45-12.63-2.13-18.3l3-2.32c12.77-9.9,15.41-28.14,5.96-41.25-9.16-12.71-21.25-22.39-35.94-28.76-13.46-5.84-29.16-8.8-46.67-8.8h0Z"/>
      </g>
    </g>
    <g>
      <g>
        <path d="m533.52,327.15c-4.24,1.24-8.48,1.86-12.71,1.86-5.86,0-10.9-1.04-15.12-3.12-4.21-2.08-7.45-5.01-9.71-8.8-2.26-3.79-3.39-8.18-3.39-13.19,0-5.74.85-11,2.57-15.76,1.71-4.76,4.18-8.89,7.42-12.37,3.24-3.48,7.12-6.17,11.64-8.06,4.52-1.89,9.59-2.84,15.21-2.84,6.11,0,11.48,1.01,16.13,3.02,4.64,2.02,9.04,5.71,13.19,11.09l30.97-24.01c-5.99-8.31-13.84-14.57-23.55-18.78s-21.29-6.32-34.73-6.32c-12.22,0-23.37,1.86-33.44,5.59-10.08,3.73-18.78,9.01-26.11,15.85-7.33,6.84-12.98,14.97-16.95,24.37-3.97,9.41-5.96,19.73-5.96,30.97s2.72,21.35,8.15,29.96c5.43,8.61,13.1,15.33,23,20.16,9.9,4.83,21.44,7.24,34.64,7.24,10.14,0,19.67-1.31,28.59-3.94,8.92-2.63,16.74-6.38,23.46-11.27l11-55.34h-37.57l-6.71,33.69Z"/>
        <path d="m531.44,229.87c13.44,0,25.01,2.11,34.73,6.32s17.56,10.48,23.55,18.78l-30.97,24.01c-4.15-5.38-8.55-9.07-13.19-11.09-4.64-2.02-10.02-3.02-16.13-3.02-5.62,0-10.69.95-15.21,2.84-4.52,1.9-8.4,4.58-11.64,8.06-3.24,3.48-5.71,7.6-7.42,12.37-1.71,4.76-2.57,10.02-2.57,15.76,0,5.01,1.13,9.41,3.39,13.19,2.26,3.79,5.5,6.72,9.71,8.8,4.21,2.08,9.25,3.12,15.12,3.12,4.24,0,8.47-.62,12.71-1.86l6.71-33.69h37.57l-11,55.34c-6.72,4.89-14.54,8.64-23.46,11.27-8.92,2.63-18.45,3.94-28.59,3.94-13.19,0-24.74-2.41-34.64-7.24-9.9-4.82-17.56-11.54-23-20.16-5.44-8.61-8.15-18.6-8.15-29.96s1.98-21.56,5.96-30.97c3.97-9.41,9.62-17.53,16.95-24.37,7.33-6.84,16.03-12.12,26.11-15.85,10.08-3.72,21.23-5.59,33.44-5.59m46.36,63.59h0m-46.37-93.59c-15.72,0-30.47,2.51-43.84,7.45-13.79,5.1-25.97,12.52-36.18,22.06-10.41,9.72-18.52,21.37-24.12,34.64-5.52,13.07-8.32,27.42-8.32,42.63,0,17.07,4.3,32.54,12.79,45.98,8.43,13.36,20.28,23.82,35.22,31.11,13.98,6.82,30.06,10.27,47.78,10.27,12.96,0,25.43-1.74,37.06-5.16,12.18-3.59,23.16-8.9,32.63-15.79,6.1-4.44,10.31-11.01,11.78-18.42l10.85-54.63c.47-2.11.72-4.31.72-6.56,0-4.44-.97-8.66-2.7-12.46l2.99-2.32c12.77-9.9,15.41-28.14,5.96-41.25-9.16-12.71-21.25-22.39-35.94-28.76-13.46-5.84-29.16-8.8-46.67-8.8h0Z"/>
      </g>
      <g>
        <polygon points="635.06 311.6 689.4 311.6 695.63 280.45 641.31 280.45 644.32 265.42 706.08 265.42 712.68 232.8 608.41 232.8 582.75 361.08 689.4 361.08 696 328.46 631.68 328.46 635.06 311.6"/>
        <path d="m712.68,232.8l-6.6,32.62h-61.76l-3.01,15.03h54.33l-6.23,31.15h-54.34l-3.38,16.86h64.32l-6.6,32.62h-106.65l25.66-128.28h104.27m-17.04,47.65h0m17.04-77.65h-104.27c-14.3,0-26.61,10.09-29.42,24.12l-25.66,128.28c-1.76,8.81.52,17.95,6.22,24.9,5.7,6.95,14.21,10.98,23.2,10.98h106.65c14.28,0,26.57-10.06,29.4-24.05l6.6-32.62c1.68-8.31-.24-16.92-5.23-23.71l4.32-21.6c5.51-4.29,9.52-10.48,10.99-17.73l6.6-32.62c1.78-8.82-.49-17.98-6.18-24.94-5.7-6.97-14.22-11.01-23.22-11.01h0Z"/>
      </g>
      <g>
        <polygon points="816.03 232.8 804.12 292.47 767.28 232.8 731.73 232.8 706.08 361.08 748.23 361.08 760.13 301.41 796.97 361.08 832.52 361.08 858.18 232.8 816.03 232.8"/>
        <path d="m858.18,232.8h0m0,0l-25.66,128.28h-35.55l-36.84-59.67-11.91,59.67h-42.15l25.66-128.28h35.55l36.84,59.67,11.91-59.67h42.15m0-30h-42.15c-9.92,0-18.88,4.85-24.37,12.51-5.61-7.82-14.67-12.51-24.37-12.51h-35.55c-14.3,0-26.61,10.09-29.42,24.12l-25.66,128.28c-1.76,8.81.52,17.95,6.22,24.9,5.7,6.95,14.21,10.98,23.2,10.98h42.15c9.92,0,18.88-4.85,24.37-12.51,5.61,7.82,14.67,12.51,24.37,12.51h35.55c14.3,0,26.61-10.09,29.42-24.12l25.51-127.56c.48-2.12.73-4.33.73-6.6,0-16.56-13.41-29.98-29.97-30h-.03Zm0,60h0,0Z"/>
      </g>
      <g>
        <polygon points="853.41 361.08 896.66 361.08 922.32 232.8 879.07 232.8 853.41 361.08"/>
        <path d="m922.32,232.8h0m0,0l-25.66,128.28h-43.25l25.66-128.28h43.25m0-30h-43.25c-14.3,0-26.61,10.09-29.42,24.12l-25.66,128.28c-1.76,8.81.52,17.95,6.22,24.9,5.7,6.95,14.21,10.98,23.2,10.98h43.25c14.3,0,26.61-10.09,29.42-24.12l25.51-127.56c.48-2.12.73-4.33.73-6.6,0-16.56-13.41-29.98-29.97-30h-.03Zm0,60h0,0Z"/>
      </g>
      <g>
        <path d="m1024.57,232.8l-13.93,69.82c-1.22,6.35-2.84,11.48-4.86,15.39-2.02,3.91-4.52,6.72-7.51,8.43-2.99,1.71-6.57,2.57-10.72,2.57-3.42,0-6.35-.52-8.8-1.56-2.44-1.04-4.37-2.66-5.77-4.86-1.41-2.2-2.23-4.95-2.47-8.25-.25-3.3.06-7.21.92-11.73l13.93-69.82h-43.25l-14.11,70.55c-2.45,12.1-1.8,22.7,1.92,31.79,3.73,9.1,10.05,16.19,18.97,21.26,8.92,5.07,20.03,7.6,33.35,7.6,19.67,0,35.37-5.01,47.1-15.03,11.73-10.02,19.48-24.62,23.27-43.8l14.48-72.39h-42.52Z"/>
        <path d="m1067.09,232.8h0m0,0l-14.48,72.39c-3.79,19.18-11.54,33.78-23.27,43.8-11.73,10.02-27.43,15.03-47.1,15.03-13.32,0-24.44-2.54-33.35-7.6-8.92-5.07-15.24-12.16-18.97-21.26-3.73-9.1-4.37-19.7-1.92-31.79l14.11-70.55h43.25l-13.93,69.82c-.86,4.52-1.16,8.43-.92,11.73.24,3.3,1.07,6.05,2.47,8.25,1.4,2.2,3.33,3.82,5.77,4.86,2.44,1.04,5.37,1.56,8.8,1.56,4.15,0,7.73-.85,10.72-2.57,2.99-1.71,5.5-4.52,7.51-8.43,2.02-3.91,3.63-9.04,4.86-15.39l13.93-69.82h42.52m0-30h-42.52c-7.42,0-14.31,2.72-19.61,7.29-5.41-4.67-12.35-7.29-19.61-7.29h-43.25c-14.3,0-26.61,10.09-29.42,24.12l-14.1,70.52c-3.62,17.94-2.42,34.45,3.57,49.08,6.31,15.42,17.05,27.52,31.91,35.97,13.45,7.64,29.66,11.52,48.17,11.52,26.92,0,49.32-7.47,66.58-22.22,16.92-14.45,28.1-34.89,33.21-60.76l14.33-71.64c.48-2.12.73-4.33.73-6.6,0-16.56-13.41-29.98-29.97-30h-.03Zm0,60h0,0Z"/>
      </g>
      <g>
        <path d="m1164.94,292.45c-3.67-2.5-7.67-4.52-12-6.05-4.34-1.53-8.68-2.81-13.01-3.85-4.34-1.04-8.34-2.02-12-2.93-3.67-.92-6.6-2.02-8.8-3.3-2.2-1.28-3.3-2.9-3.3-4.86,0-1.47.7-2.87,2.11-4.21,1.4-1.34,3.51-2.41,6.32-3.21,2.81-.79,6.29-1.19,10.45-1.19,6.23,0,12.37.8,18.42,2.38,6.05,1.59,11.64,3.97,16.77,7.15l15.58-31.52c-5.99-3.54-13.1-6.26-21.35-8.16-8.25-1.89-17.13-2.84-26.66-2.84-13.44,0-25.01,1.99-34.73,5.96-9.71,3.97-17.17,9.56-22.36,16.77-5.19,7.21-7.79,15.7-7.79,25.47,0,5.62,1.1,10.39,3.3,14.29,2.2,3.91,5.1,7.15,8.7,9.71,3.6,2.57,7.6,4.67,12,6.32,4.4,1.65,8.77,3,13.1,4.03,4.33,1.04,8.31,2.05,11.91,3.02,3.6.98,6.51,2.08,8.7,3.3,2.2,1.22,3.3,2.81,3.3,4.76,0,1.47-.64,2.78-1.92,3.94-1.28,1.16-3.18,2.05-5.68,2.66-2.51.61-5.65.92-9.44.92-4.76,0-9.56-.43-14.39-1.28-4.83-.85-9.65-2.17-14.48-3.94-4.83-1.77-9.62-4-14.39-6.69l-16.68,31.89c4.15,2.45,9.07,4.67,14.75,6.69,5.68,2.02,12,3.57,18.97,4.67,6.96,1.1,14.23,1.65,21.81,1.65,13.31,0,24.83-2.02,34.54-6.05,9.71-4.03,17.19-9.62,22.45-16.77,5.25-7.15,7.88-15.49,7.88-25.01,0-5.62-1.1-10.35-3.3-14.2s-5.13-7.02-8.8-9.53Z"/>
        <path d="m1137.45,229.87c9.53,0,18.42.95,26.66,2.84,8.25,1.9,15.36,4.61,21.35,8.16l-15.58,31.52c-5.13-3.17-10.72-5.56-16.77-7.15-6.05-1.59-12.19-2.38-18.42-2.38-4.15,0-7.64.4-10.45,1.19-2.81.8-4.92,1.86-6.32,3.21-1.41,1.35-2.11,2.75-2.11,4.21,0,1.96,1.1,3.57,3.3,4.86,2.2,1.28,5.13,2.38,8.8,3.3,3.67.92,7.67,1.9,12,2.93,4.33,1.04,8.67,2.32,13.01,3.85,4.33,1.53,8.34,3.54,12,6.05,3.67,2.51,6.6,5.68,8.8,9.53s3.3,8.58,3.3,14.2c0,9.53-2.63,17.87-7.88,25.01-5.25,7.15-12.74,12.74-22.45,16.77-9.71,4.03-21.23,6.05-34.54,6.05-7.58,0-14.84-.55-21.81-1.65-6.96-1.1-13.29-2.66-18.97-4.67-5.68-2.02-10.6-4.24-14.75-6.69l16.68-31.89c4.76,2.69,9.56,4.92,14.39,6.69,4.82,1.77,9.65,3.09,14.48,3.94,4.82.86,9.62,1.28,14.39,1.28,3.79,0,6.93-.3,9.44-.92,2.5-.61,4.4-1.5,5.68-2.66,1.28-1.16,1.92-2.47,1.92-3.94,0-1.95-1.1-3.54-3.3-4.76-2.2-1.22-5.1-2.32-8.7-3.3-3.6-.98-7.58-1.98-11.91-3.02-4.34-1.04-8.7-2.38-13.1-4.03-4.4-1.65-8.4-3.76-12-6.32-3.6-2.57-6.51-5.8-8.7-9.71-2.2-3.91-3.3-8.67-3.3-14.29,0-9.77,2.59-18.26,7.79-25.47,5.19-7.21,12.64-12.8,22.36-16.77,9.71-3.97,21.29-5.96,34.73-5.96m0-30c-17.28,0-32.78,2.75-46.07,8.19-14.96,6.11-26.85,15.2-35.35,27-8.92,12.38-13.45,26.85-13.45,43.01,0,9.24,1.76,17.71,5.23,25.25-.38.62-.74,1.25-1.08,1.9l-16.68,31.89c-7.41,14.16-2.41,31.65,11.37,39.76,5.77,3.4,12.48,6.46,19.94,9.11,7.38,2.62,15.57,4.65,24.32,6.03,8.48,1.34,17.39,2.02,26.49,2.02,17.22,0,32.71-2.81,46.04-8.34,14.79-6.14,26.6-15.12,35.12-26.71,9.1-12.38,13.71-26.78,13.71-42.78,0-10.88-2.44-20.67-7.25-29.09-.65-1.14-1.34-2.25-2.05-3.34l14.63-29.6c6.95-14.07,1.89-31.12-11.62-39.11-8.62-5.1-18.68-8.99-29.9-11.57-10.42-2.39-21.65-3.6-33.38-3.6h0Z"/>
      </g>
    </g>
  </g>
  <g>
    <g>
      <polygon class="cls-1" points="136.12 146.64 189.52 146.64 196.11 114.02 142.62 114.02 147 92.03 208.03 92.03 214.62 59.41 110.35 59.41 84.7 187.69 127.94 187.69 136.12 146.64"/>
      <path class="cls-1" d="m303.68,187.69h45.63l12.82-22.36h48.87l4.27,22.36h43.06l-30.42-128.28h-42.52l-81.46,127.85,6.69-33.11h-57.91l18.88-94.74h-43.25l-25.66,128.28h100.97Zm95.11-86.26l6.26,32.75h-25.05l18.78-32.75Z"/>
      <path class="cls-1" d="m501.78,183.39c9.9,4.83,21.44,7.24,34.64,7.24,10.14,0,19.67-1.31,28.59-3.94,8.92-2.63,16.74-6.38,23.46-11.27l11-55.34h-37.57l-6.71,33.69c-4.24,1.24-8.48,1.86-12.71,1.86-5.86,0-10.9-1.04-15.12-3.12-4.21-2.08-7.45-5.01-9.71-8.8-2.26-3.79-3.39-8.18-3.39-13.19,0-5.74.85-11,2.57-15.76,1.71-4.76,4.18-8.89,7.42-12.37,3.24-3.48,7.12-6.17,11.64-8.06,4.52-1.89,9.59-2.84,15.21-2.84,6.11,0,11.48,1.01,16.13,3.02,4.64,2.02,9.04,5.71,13.19,11.09l30.97-24.01c-5.99-8.31-13.84-14.57-23.55-18.78s-21.29-6.32-34.73-6.32c-12.22,0-23.37,1.86-33.44,5.59-10.08,3.73-18.78,9.01-26.11,15.85-7.33,6.84-12.98,14.97-16.95,24.37-3.97,9.41-5.96,19.73-5.96,30.97s2.72,21.35,8.15,29.96c5.43,8.61,13.1,15.33,23,20.16Z"/>
    </g>
    <g>
      <path class="cls-1" d="m522.06,309.59c-4.24,1.24-8.48,1.86-12.71,1.86-5.86,0-10.9-1.04-15.12-3.12-4.21-2.08-7.45-5.01-9.71-8.8-2.26-3.79-3.39-8.18-3.39-13.19,0-5.74.85-11,2.57-15.76,1.71-4.76,4.18-8.89,7.42-12.37,3.24-3.48,7.12-6.17,11.64-8.06,4.52-1.89,9.59-2.84,15.21-2.84,6.11,0,11.48,1.01,16.13,3.02,4.64,2.02,9.04,5.71,13.19,11.09l30.97-24.01c-5.99-8.31-13.84-14.57-23.55-18.78s-21.29-6.32-34.73-6.32c-12.22,0-23.37,1.86-33.44,5.59-10.08,3.73-18.78,9.01-26.11,15.85-7.33,6.84-12.98,14.97-16.95,24.37-3.97,9.41-5.96,19.73-5.96,30.97s2.72,21.35,8.15,29.96c5.43,8.61,13.1,15.33,23,20.16,9.9,4.83,21.44,7.24,34.64,7.24,10.14,0,19.67-1.31,28.59-3.94,8.92-2.63,16.74-6.38,23.46-11.27l11-55.34h-37.57l-6.71,33.69Z"/>
      <polygon class="cls-1" points="623.6 294.04 677.94 294.04 684.17 262.89 629.84 262.89 632.86 247.86 694.62 247.86 701.21 215.24 596.94 215.24 571.29 343.52 677.94 343.52 684.54 310.9 620.21 310.9 623.6 294.04"/>
      <polygon class="cls-1" points="804.57 215.24 792.66 274.91 755.82 215.24 720.27 215.24 694.61 343.52 736.76 343.52 748.67 283.85 785.51 343.52 821.06 343.52 846.71 215.24 804.57 215.24"/>
      <polygon class="cls-1" points="841.95 343.52 885.2 343.52 910.85 215.24 867.6 215.24 841.95 343.52"/>
      <path class="cls-1" d="m1013.11,215.24l-13.93,69.82c-1.22,6.35-2.84,11.48-4.86,15.39-2.02,3.91-4.52,6.72-7.51,8.43-2.99,1.71-6.57,2.57-10.72,2.57-3.42,0-6.35-.52-8.8-1.56-2.44-1.04-4.37-2.66-5.77-4.86-1.41-2.2-2.23-4.95-2.47-8.25-.25-3.3.06-7.21.92-11.73l13.93-69.82h-43.25l-14.11,70.55c-2.45,12.1-1.8,22.7,1.92,31.79,3.73,9.1,10.05,16.19,18.97,21.26,8.92,5.07,20.03,7.6,33.35,7.6,19.67,0,35.37-5.01,47.1-15.03,11.73-10.02,19.48-24.62,23.27-43.8l14.48-72.39h-42.52Z"/>
      <path class="cls-1" d="m1153.48,274.89c-3.67-2.5-7.67-4.52-12-6.05-4.34-1.53-8.68-2.81-13.01-3.85-4.34-1.04-8.34-2.02-12-2.93-3.67-.92-6.6-2.02-8.8-3.3-2.2-1.28-3.3-2.9-3.3-4.86,0-1.47.7-2.87,2.11-4.21,1.4-1.34,3.51-2.41,6.32-3.21,2.81-.79,6.29-1.19,10.45-1.19,6.23,0,12.37.8,18.42,2.38,6.05,1.59,11.64,3.97,16.77,7.15l15.58-31.52c-5.99-3.54-13.1-6.26-21.35-8.16-8.25-1.89-17.13-2.84-26.66-2.84-13.44,0-25.01,1.99-34.73,5.96-9.71,3.97-17.17,9.56-22.36,16.77-5.19,7.21-7.79,15.7-7.79,25.47,0,5.62,1.1,10.39,3.3,14.29,2.2,3.91,5.1,7.15,8.7,9.71,3.6,2.57,7.6,4.67,12,6.32,4.4,1.65,8.77,3,13.1,4.03,4.33,1.04,8.31,2.05,11.91,3.02,3.6.98,6.51,2.08,8.7,3.3,2.2,1.22,3.3,2.81,3.3,4.76,0,1.47-.64,2.78-1.92,3.94-1.28,1.16-3.18,2.05-5.68,2.66-2.51.61-5.65.92-9.44.92-4.76,0-9.56-.43-14.39-1.28-4.83-.85-9.65-2.17-14.48-3.94-4.83-1.77-9.62-4-14.39-6.69l-16.68,31.89c4.15,2.45,9.07,4.67,14.75,6.69,5.68,2.02,12,3.57,18.97,4.67,6.96,1.1,14.23,1.65,21.81,1.65,13.31,0,24.83-2.02,34.54-6.05,9.71-4.03,17.19-9.62,22.45-16.77,5.25-7.15,7.88-15.49,7.88-25.01,0-5.62-1.1-10.35-3.3-14.2s-5.13-7.02-8.8-9.53Z"/>
    </g>
  </g>
</svg>